<mxfile host="65bd71144e">
    <diagram id="inBH0oujlSCSYGyT9Axf" name="ページ1">
        <mxGraphModel dx="1074" dy="562" grid="1" gridSize="10" guides="1" tooltips="1" connect="1" arrows="1" fold="1" page="1" pageScale="1" pageWidth="827" pageHeight="1169" background="#ffffff" math="0" shadow="0">
            <root>
                <mxCell id="0"/>
                <mxCell id="1" parent="0"/>
                <mxCell id="6" style="edgeStyle=none;html=1;entryX=0;entryY=0.463;entryDx=0;entryDy=0;entryPerimeter=0;fontColor=#000000;endArrow=classic;endFill=1;strokeColor=#000000;" edge="1" parent="1" source="3" target="5">
                    <mxGeometry relative="1" as="geometry"/>
                </mxCell>
                <mxCell id="3" value="&lt;font color=&quot;#000000&quot;&gt;ユーザ&lt;/font&gt;" style="shape=umlActor;verticalLabelPosition=bottom;verticalAlign=top;html=1;strokeColor=#006EAF;fillColor=#1ba1e2;fontColor=#ffffff;" vertex="1" parent="1">
                    <mxGeometry x="80" y="200" width="30" height="60" as="geometry"/>
                </mxCell>
                <mxCell id="10" style="edgeStyle=none;html=1;fontColor=#000000;endArrow=classic;endFill=1;strokeColor=#000000;" edge="1" parent="1" source="5">
                    <mxGeometry relative="1" as="geometry">
                        <mxPoint x="340" y="180" as="targetPoint"/>
                    </mxGeometry>
                </mxCell>
                <mxCell id="5" value="ログイン画面" style="shape=umlBoundary;whiteSpace=wrap;html=1;fontColor=#ffffff;strokeColor=#006EAF;fillColor=#1ba1e2;" vertex="1" parent="1">
                    <mxGeometry x="200" y="140" width="100" height="80" as="geometry"/>
                </mxCell>
                <mxCell id="7" value="新しいユーザを&lt;br&gt;作成ボタンを押す" style="text;html=1;align=center;verticalAlign=middle;resizable=0;points=[];autosize=1;strokeColor=none;fillColor=none;fontColor=#000000;" vertex="1" parent="1">
                    <mxGeometry x="70" y="150" width="110" height="30" as="geometry"/>
                </mxCell>
                <mxCell id="15" style="edgeStyle=none;html=1;entryX=-0.057;entryY=0.513;entryDx=0;entryDy=0;entryPerimeter=0;fontColor=#000000;endArrow=classic;endFill=1;strokeColor=#000000;" edge="1" parent="1" source="8" target="14">
                    <mxGeometry relative="1" as="geometry"/>
                </mxCell>
                <mxCell id="8" value="アカウント&lt;br&gt;登録画面" style="shape=umlBoundary;whiteSpace=wrap;html=1;fontColor=#ffffff;strokeColor=#006EAF;fillColor=#1ba1e2;" vertex="1" parent="1">
                    <mxGeometry x="200" y="260" width="100" height="80" as="geometry"/>
                </mxCell>
                <mxCell id="12" style="edgeStyle=none;html=1;fontColor=#000000;endArrow=classic;endFill=1;strokeColor=#000000;" edge="1" parent="1" source="9" target="11">
                    <mxGeometry relative="1" as="geometry"/>
                </mxCell>
                <mxCell id="9" value="ユーザを&lt;br&gt;作成ボタンを押す" style="ellipse;shape=umlControl;whiteSpace=wrap;html=1;fontColor=#333333;strokeColor=#666666;fillColor=#f5f5f5;" vertex="1" parent="1">
                    <mxGeometry x="344" y="140" width="70" height="80" as="geometry"/>
                </mxCell>
                <mxCell id="13" style="edgeStyle=none;html=1;entryX=0.96;entryY=0.288;entryDx=0;entryDy=0;entryPerimeter=0;fontColor=#000000;endArrow=classic;endFill=1;strokeColor=#000000;" edge="1" parent="1" source="11" target="8">
                    <mxGeometry relative="1" as="geometry"/>
                </mxCell>
                <mxCell id="11" value="アカウント登録画面を表示する" style="ellipse;shape=umlControl;whiteSpace=wrap;html=1;fontColor=#333333;strokeColor=#666666;fillColor=#f5f5f5;" vertex="1" parent="1">
                    <mxGeometry x="450" y="140" width="70" height="80" as="geometry"/>
                </mxCell>
                <mxCell id="17" style="edgeStyle=none;html=1;entryX=-0.043;entryY=0.5;entryDx=0;entryDy=0;entryPerimeter=0;fontColor=#000000;endArrow=classic;endFill=1;strokeColor=#000000;" edge="1" parent="1" source="14" target="16">
                    <mxGeometry relative="1" as="geometry"/>
                </mxCell>
                <mxCell id="14" value="ユーザIDを入力" style="ellipse;shape=umlControl;whiteSpace=wrap;html=1;fontColor=#333333;strokeColor=#666666;fillColor=#f5f5f5;" vertex="1" parent="1">
                    <mxGeometry x="360" y="260" width="70" height="80" as="geometry"/>
                </mxCell>
                <mxCell id="19" style="edgeStyle=none;html=1;entryX=0.014;entryY=0.375;entryDx=0;entryDy=0;entryPerimeter=0;fontColor=#000000;endArrow=classic;endFill=1;strokeColor=#000000;" edge="1" parent="1" source="16" target="18">
                    <mxGeometry relative="1" as="geometry"/>
                </mxCell>
                <mxCell id="16" value="入力が空でないか&lt;br&gt;確認する" style="ellipse;shape=umlControl;whiteSpace=wrap;html=1;fontColor=#333333;strokeColor=#666666;fillColor=#f5f5f5;" vertex="1" parent="1">
                    <mxGeometry x="470" y="260" width="70" height="80" as="geometry"/>
                </mxCell>
                <mxCell id="21" style="edgeStyle=none;html=1;entryX=0.075;entryY=0.25;entryDx=0;entryDy=0;entryPerimeter=0;fontColor=#000000;endArrow=none;endFill=0;strokeColor=#000000;" edge="1" parent="1" source="18" target="20">
                    <mxGeometry relative="1" as="geometry"/>
                </mxCell>
                <mxCell id="26" style="edgeStyle=none;html=1;entryX=0.843;entryY=0.25;entryDx=0;entryDy=0;entryPerimeter=0;fontColor=#000000;endArrow=classic;endFill=1;strokeColor=#000000;" edge="1" parent="1" source="18" target="24">
                    <mxGeometry relative="1" as="geometry"/>
                </mxCell>
                <mxCell id="28" style="edgeStyle=none;html=1;fontColor=#000000;endArrow=classic;endFill=1;strokeColor=#000000;" edge="1" parent="1" source="18" target="27">
                    <mxGeometry relative="1" as="geometry"/>
                </mxCell>
                <mxCell id="18" value="未登録か&lt;br&gt;どうか確認する" style="ellipse;shape=umlControl;whiteSpace=wrap;html=1;fontColor=#333333;strokeColor=#666666;fillColor=#f5f5f5;" vertex="1" parent="1">
                    <mxGeometry x="590" y="300" width="70" height="80" as="geometry"/>
                </mxCell>
                <mxCell id="25" style="edgeStyle=none;html=1;entryX=1.029;entryY=0.538;entryDx=0;entryDy=0;entryPerimeter=0;fontColor=#000000;endArrow=none;endFill=0;strokeColor=#000000;" edge="1" parent="1" source="20" target="24">
                    <mxGeometry relative="1" as="geometry"/>
                </mxCell>
                <mxCell id="20" value="ユーザ台帳" style="ellipse;shape=umlEntity;whiteSpace=wrap;html=1;fontColor=#ffffff;strokeColor=#A50040;fillColor=#d80073;" vertex="1" parent="1">
                    <mxGeometry x="700" y="370" width="80" height="80" as="geometry"/>
                </mxCell>
                <mxCell id="22" value="ユーザIDで検索" style="text;html=1;align=center;verticalAlign=middle;resizable=0;points=[];autosize=1;strokeColor=none;fillColor=none;fontColor=#000000;" vertex="1" parent="1">
                    <mxGeometry x="670" y="340" width="100" height="20" as="geometry"/>
                </mxCell>
                <mxCell id="33" style="edgeStyle=none;html=1;fontColor=#000000;endArrow=classic;endFill=1;strokeColor=#000000;" edge="1" parent="1" source="24" target="32">
                    <mxGeometry relative="1" as="geometry"/>
                </mxCell>
                <mxCell id="24" value="新しい&lt;br&gt;ユーザをDBに登録する" style="ellipse;shape=umlControl;whiteSpace=wrap;html=1;fontColor=#333333;strokeColor=#666666;fillColor=#f5f5f5;" vertex="1" parent="1">
                    <mxGeometry x="520" y="400" width="70" height="80" as="geometry"/>
                </mxCell>
                <mxCell id="30" style="edgeStyle=none;html=1;fontColor=#000000;endArrow=classic;endFill=1;strokeColor=#000000;entryX=0.85;entryY=0.913;entryDx=0;entryDy=0;entryPerimeter=0;" edge="1" parent="1" source="27" target="8">
                    <mxGeometry relative="1" as="geometry"/>
                </mxCell>
                <mxCell id="27" value="登録済み&lt;br&gt;エラー" style="ellipse;shape=umlControl;whiteSpace=wrap;html=1;fontColor=#333333;strokeColor=#666666;fillColor=#f5f5f5;" vertex="1" parent="1">
                    <mxGeometry x="330" y="370" width="70" height="80" as="geometry"/>
                </mxCell>
                <mxCell id="29" value="登録済み" style="text;html=1;align=center;verticalAlign=middle;resizable=0;points=[];autosize=1;strokeColor=none;fillColor=none;fontColor=#000000;" vertex="1" parent="1">
                    <mxGeometry x="430" y="390" width="60" height="20" as="geometry"/>
                </mxCell>
                <mxCell id="31" value="ユーザを登録" style="text;html=1;align=center;verticalAlign=middle;resizable=0;points=[];autosize=1;strokeColor=none;fillColor=none;fontColor=#000000;" vertex="1" parent="1">
                    <mxGeometry x="610" y="450" width="90" height="20" as="geometry"/>
                </mxCell>
                <mxCell id="35" style="edgeStyle=none;html=1;entryX=1.01;entryY=0.513;entryDx=0;entryDy=0;entryPerimeter=0;fontColor=#000000;endArrow=classic;endFill=1;strokeColor=#000000;" edge="1" parent="1" source="32" target="34">
                    <mxGeometry relative="1" as="geometry"/>
                </mxCell>
                <mxCell id="32" value="ログイン&lt;br&gt;画面を表示する" style="ellipse;shape=umlControl;whiteSpace=wrap;html=1;fontColor=#333333;strokeColor=#666666;fillColor=#f5f5f5;" vertex="1" parent="1">
                    <mxGeometry x="360" y="450" width="70" height="80" as="geometry"/>
                </mxCell>
                <mxCell id="34" value="ログイン画面" style="shape=umlBoundary;whiteSpace=wrap;html=1;fontColor=#ffffff;strokeColor=#006EAF;fillColor=#1ba1e2;" vertex="1" parent="1">
                    <mxGeometry x="200" y="450" width="100" height="80" as="geometry"/>
                </mxCell>
            </root>
        </mxGraphModel>
    </diagram>
</mxfile>